<svg width="114" height="46" viewBox="0 0 114 46" fill="none" xmlns="http://www.w3.org/2000/svg">
<path d="M99.7848 45.12C96.8248 45.12 94.2648 44.46 92.1048 43.14C89.9448 41.78 88.2648 39.88 87.0648 37.44C85.9048 35 85.3248 32.12 85.3248 28.8C85.3248 25.48 85.9048 22.62 87.0648 20.22C88.2248 17.78 89.8648 15.88 91.9848 14.52C94.1048 13.16 96.6448 12.48 99.6048 12.48C102.685 12.48 105.245 13.18 107.285 14.58C109.365 15.94 110.925 17.8 111.965 20.16C113.005 22.52 113.525 25.14 113.525 28.02V30.48H92.1648V31.5C92.1648 33.9 92.8648 35.88 94.2648 37.44C95.7048 38.96 97.7448 39.72 100.385 39.72C102.305 39.72 103.925 39.3 105.245 38.46C106.565 37.62 107.665 36.48 108.545 35.04L112.445 38.82C111.245 40.7 109.545 42.22 107.345 43.38C105.185 44.54 102.665 45.12 99.7848 45.12ZM99.7248 17.58C98.2048 17.58 96.8648 17.94 95.7048 18.66C94.5848 19.34 93.7048 20.3 93.0648 21.54C92.4648 22.74 92.1648 24.14 92.1648 25.74V26.16H106.685V25.56C106.685 23.96 106.405 22.56 105.845 21.36C105.285 20.16 104.485 19.24 103.445 18.6C102.405 17.92 101.165 17.58 99.7248 17.58Z" fill="black"/>
<path d="M76.5969 44.4V39.24H76.2969C75.5769 41.08 74.4569 42.52 72.9369 43.56C71.4169 44.6 69.6169 45.12 67.5369 45.12C64.9369 45.12 62.6969 44.48 60.8169 43.2C58.9769 41.88 57.5569 40 56.5569 37.56C55.5969 35.12 55.1169 32.2 55.1169 28.8C55.1169 25.36 55.5969 22.44 56.5569 20.04C57.5569 17.6 58.9769 15.74 60.8169 14.46C62.6969 13.14 64.9369 12.48 67.5369 12.48C69.6169 12.48 71.4369 13 72.9969 14.04C74.5569 15.04 75.6569 16.48 76.2969 18.36H76.5969V0H83.1369V44.4H76.5969ZM69.5169 39.6C70.8369 39.6 72.0169 39.38 73.0569 38.94C74.1369 38.46 74.9969 37.82 75.6369 37.02C76.2769 36.18 76.5969 35.16 76.5969 33.96V23.4C76.5969 22.32 76.2769 21.38 75.6369 20.58C74.9969 19.78 74.1369 19.16 73.0569 18.72C72.0169 18.28 70.8369 18.06 69.5169 18.06C67.2769 18.06 65.4569 18.8 64.0569 20.28C62.6969 21.76 62.0169 23.7 62.0169 26.1V31.5C62.0169 33.9 62.6969 35.86 64.0569 37.38C65.4569 38.86 67.2769 39.6 69.5169 39.6Z" fill="black"/>
<path d="M38.9958 45.12C36.0358 45.12 33.4758 44.46 31.3158 43.14C29.1558 41.78 27.4758 39.88 26.2758 37.44C25.1158 35 24.5358 32.12 24.5358 28.8C24.5358 25.48 25.1158 22.62 26.2758 20.22C27.4358 17.78 29.0758 15.88 31.1958 14.52C33.3158 13.16 35.8558 12.48 38.8158 12.48C41.8958 12.48 44.4558 13.18 46.4958 14.58C48.5758 15.94 50.1358 17.8 51.1758 20.16C52.2158 22.52 52.7358 25.14 52.7358 28.02V30.48H31.3758V31.5C31.3758 33.9 32.0758 35.88 33.4758 37.44C34.9158 38.96 36.9558 39.72 39.5958 39.72C41.5158 39.72 43.1358 39.3 44.4558 38.46C45.7758 37.62 46.8758 36.48 47.7558 35.04L51.6558 38.82C50.4558 40.7 48.7558 42.22 46.5558 43.38C44.3958 44.54 41.8758 45.12 38.9958 45.12ZM38.9358 17.58C37.4158 17.58 36.0758 17.94 34.9158 18.66C33.7958 19.34 32.9158 20.3 32.2758 21.54C31.6758 22.74 31.3758 24.14 31.3758 25.74V26.16H45.8958V25.56C45.8958 23.96 45.6158 22.56 45.0558 21.36C44.4958 20.16 43.6958 19.24 42.6558 18.6C41.6158 17.92 40.3758 17.58 38.9358 17.58Z" fill="black"/>
<path d="M23.82 44.4H0V2.52002H6.78V38.4H23.82V44.4Z" fill="black"/>
</svg>
